
<svg version="1.1"
	 id="svg2"
	 xmlns="http://www.w3.org/2000/svg" xmlns:xlink="http://www.w3.org/1999/xlink" x="0px" y="0px" width="320px" height="320px"
	 viewBox="-20 -20 399 399" enable-background="new 0 0 399 399" xml:space="preserve">
<title  id="title">tp3 Facebook</title>
<g id="layer9" transform="translate(-194.96875,-276.5625)">
	<g id="g4469">
		<path id="path3857" fill="#3B5998" d="M394.469,276.563c-110.184,0-199.5,89.316-199.5,199.5
			s89.316,199.5,199.5,199.5c2.83,0,5.636-0.07,8.438-0.188V529.75h-30.094v-50.188h30.094v-30.125
			c0-40.945,16.957-65.313,65.188-65.313h40.156v50.219h-25.094c-18.778,0-20.031,7.002-20.031,20.094l-0.063,25.125h45.469
			l-5.313,50.188h-40.156v133.719c76.391-27.971,130.906-101.325,130.906-187.406C593.969,365.879,504.652,276.563,394.469,276.563z
			"/>
		<path id="path3857-4" fill="#FFFFFF" d="M468.1,384.142c-48.23,0-65.188,24.367-65.188,65.313
			v30.125h-30.094v50.188h30.094v145.625c21.056-0.878,41.278-4.995,60.156-11.906V529.767h40.155l5.313-50.188h-45.468
			l0.063-25.125c0-13.092,1.252-20.094,20.031-20.094h25.093v-50.219H468.1L468.1,384.142z"/>
	</g>
</g>
<circle id="schadow_x5F_back_x5F_tp" fill="#7C7C7C" cx="60.694" cy="58.427" r="57.744"/>
<radialGradient id="back_x5F_tp_1_" cx="197.7988" cy="-80.0522" r="57.7441" gradientTransform="matrix(1 0 0 1 -137.6802 137.1348)" gradientUnits="userSpaceOnUse">
	<stop  offset="0" style="stop-color:#333333"/>
	<stop  offset="1" style="stop-color:#FFFFFF"/>
</radialGradient>
<circle id="back_x5F_tp" fill="url(#back_x5F_tp_1_)" stroke="#FFFFFF" stroke-miterlimit="10" cx="60.118" cy="57.083" r="57.744"/>
<circle id="blau" fill="#005E9E" cx="61.366" cy="57.563" r="39.984"/>
<circle id="schadow_x5F_back_x5F_3" fill="#5E5D5D" cx="103.551" cy="19.931" r="30.912"/>
<radialGradient id="back_x5F_3_1_" cx="-453.1641" cy="-274.8721" r="57.7468" gradientTransform="matrix(0.5353 0 0 0.5353 345.8978 166.3018)" gradientUnits="userSpaceOnUse">
	<stop  offset="0" style="stop-color:#333333"/>
	<stop  offset="1" style="stop-color:#FFFFFF"/>
</radialGradient>
<circle id="back_x5F_3" fill="url(#back_x5F_3_1_)" stroke="#FFFFFF" stroke-miterlimit="10" cx="103.319" cy="19.163" r="30.912"/>
<circle id="orange" fill="#EB7900" cx="104.326" cy="19.69" r="21.504"/>
<g id="tp">
	<g>
		<path fill="#FFFFFF" d="M53.693,45.672v6.239h-5.899v11.92c0,2.414,0.056,3.82,0.169,4.22c0.112,0.399,0.369,0.729,0.768,0.989
			s0.886,0.389,1.459,0.389c0.799,0,1.956-0.25,3.472-0.752l0.737,6.072c-2.008,0.78-4.281,1.17-6.82,1.17
			c-1.557,0-2.96-0.237-4.209-0.71c-1.25-0.474-2.166-1.086-2.749-1.838c-0.584-0.752-0.989-1.769-1.213-3.05
			c-0.185-0.91-0.277-2.749-0.277-5.515V51.911h-3.963v-6.239h3.963v-5.877l8.664-4.568v10.444L53.693,45.672L53.693,45.672
			L53.693,45.672z"/>
		<path fill="#FFFFFF" d="M59.438,45.672h8.049v4.345c1.044-1.485,2.458-2.692,4.239-3.621c1.782-0.928,3.758-1.392,5.93-1.392
			c3.789,0,7.004,1.346,9.646,4.038c2.642,2.692,3.963,6.444,3.963,11.252c0,4.939-1.332,8.778-3.994,11.516
			c-2.663,2.739-5.889,4.108-9.677,4.108c-1.803,0-3.437-0.325-4.9-0.974c-1.465-0.65-3.006-1.764-4.624-3.342v14.9h-8.633V45.672z
			 M67.979,59.96c0,3.324,0.727,5.779,2.181,7.366c1.453,1.588,3.226,2.381,5.314,2.381c2.007,0,3.676-0.729,5.008-2.186
			c1.331-1.458,1.997-3.848,1.997-7.172c0-3.101-0.686-5.404-2.059-6.908c-1.372-1.504-3.072-2.256-5.1-2.256
			c-2.109,0-3.86,0.738-5.253,2.214C68.675,54.877,67.979,57.063,67.979,59.96z"/>
	</g>
</g>
<g id="back">
	<g>
		<path fill="#E5E5E5" d="M95.163,24.103l5.007-0.507c0.159,1.065,0.589,1.878,1.289,2.441c0.7,0.563,1.546,0.844,2.54,0.844
			c1.068,0,1.966-0.337,2.697-1.013c0.73-0.675,1.095-1.586,1.095-2.732c0-1.084-0.35-1.944-1.049-2.579
			c-0.7-0.634-1.553-0.951-2.559-0.951c-0.663,0-1.455,0.107-2.375,0.322l0.571-3.516c1.398,0.031,2.466-0.222,3.202-0.76
			c0.737-0.538,1.105-1.251,1.105-2.142c0-0.757-0.27-1.361-0.81-1.811c-0.54-0.45-1.258-0.675-2.154-0.675
			c-0.884,0-1.638,0.255-2.264,0.767c-0.626,0.512-1.006,1.259-1.141,2.241l-4.768-0.675c0.332-1.361,0.832-2.449,1.5-3.262
			c0.668-0.813,1.601-1.453,2.798-1.919c1.196-0.465,2.537-0.698,4.022-0.698c2.54,0,4.577,0.676,6.111,2.026
			c1.264,1.105,1.896,2.354,1.896,3.745c0,1.976-1.294,3.551-3.884,4.728c1.546,0.276,2.783,0.896,3.709,1.857
			c0.926,0.962,1.389,2.124,1.389,3.485c0,1.975-0.865,3.659-2.596,5.05c-1.73,1.393-3.884,2.088-6.461,2.088
			c-2.442,0-4.467-0.585-6.075-1.757C96.353,27.528,95.42,25.996,95.163,24.103z"/>
	</g>
</g>
</svg>
